<?xml version="1.0" encoding="utf-8"?>
<!-- Generator: Adobe Illustrator 24.0.1, SVG Export Plug-In . SVG Version: 6.00 Build 0)  -->
<svg version="1.1" id="Слой_1" xmlns="http://www.w3.org/2000/svg" xmlns:xlink="http://www.w3.org/1999/xlink" x="0px" y="0px"
	 viewBox="0 0 512 408" style="enable-background:new 0 0 512 408;" xml:space="preserve">
<style type="text/css">
	.st0{fill:url(#SVGID_1_);}
	.st1{fill:#FFFFFF;}
	.st2{font-family:'EchoRevival';}
	.st3{font-size:12px;}
</style>
<linearGradient id="SVGID_1_" gradientUnits="userSpaceOnUse" x1="51.5529" y1="368.3049" x2="498.9538" y2="13.1579" gradientTransform="matrix(1 0 0 -1 0 410)">
	<stop  offset="0" style="stop-color:#9013FE"/>
	<stop  offset="1" style="stop-color:#6610F2"/>
</linearGradient>
<path class="st0" d="M56.5,53.3C55.5,25.6,77.1,0,106.3,0h299.4c29.2,0,50.8,25.6,49.9,53.3c-0.9,26.6,0.3,61.2,9,89.3
	c8.7,28.2,23.4,46.1,47.5,48.4v26c-24.1,2.3-38.8,20.1-47.5,48.4c-8.7,28.1-9.9,62.7-9,89.3c1,27.7-20.6,53.3-49.9,53.3H106.3
	c-29.2,0-50.8-25.6-49.9-53.3c0.9-26.6-0.3-61.2-9-89.3C38.8,237.1,24.1,219.3,0,217v-26c24.1-2.3,38.8-20.1,47.5-48.4
	C56.2,114.5,57.4,80,56.5,53.3z"/>
<text transform="matrix(26.1801 0 0 27.679 101.9961 325)" class="st1 st2 st3">S</text>
<text transform="matrix(26.7976 0 0 26.7976 244.0439 324)" class="st1 st2 st3">T</text>
</svg>
